<svg width="300" height="66" viewBox="0 0 300 66" fill="none" xmlns="http://www.w3.org/2000/svg">
    <rect x="0.5" y="0.5" width="299" height="65" rx="32.5" stroke="#B7B7B7"/>
    <path d="M30.6293 25.4545V40H27.5895V27.9545H21.7088V40H18.669V25.4545H30.6293ZM33.5004 44.0909V29.0909H36.4833V30.9233H36.6183C36.7508 30.6297 36.9426 30.3314 37.1935 30.0284C37.4492 29.7206 37.7807 29.465 38.1879 29.2614C38.5998 29.053 39.1112 28.9489 39.7219 28.9489C40.5174 28.9489 41.2513 29.1572 41.9237 29.5739C42.596 29.9858 43.1334 30.6084 43.5359 31.4418C43.9383 32.2704 44.1396 33.3097 44.1396 34.5597C44.1396 35.7765 43.9431 36.804 43.5501 37.642C43.1618 38.4754 42.6315 39.1075 41.9592 39.5384C41.2915 39.9645 40.5434 40.1776 39.7148 40.1776C39.1277 40.1776 38.6282 40.0805 38.2163 39.8864C37.8091 39.6922 37.4753 39.4484 37.2148 39.1548C36.9544 38.8565 36.7556 38.5559 36.6183 38.2528H36.5259V44.0909H33.5004ZM36.462 34.5455C36.462 35.1941 36.552 35.7599 36.7319 36.2429C36.9118 36.7259 37.1722 37.1023 37.5131 37.3722C37.854 37.6373 38.2683 37.7699 38.756 37.7699C39.2485 37.7699 39.6651 37.6349 40.006 37.3651C40.3469 37.0904 40.605 36.7116 40.7802 36.2287C40.9601 35.741 41.0501 35.1799 41.0501 34.5455C41.0501 33.9157 40.9625 33.3617 40.7873 32.8835C40.6121 32.4053 40.354 32.0312 40.0131 31.7614C39.6722 31.4915 39.2532 31.3565 38.756 31.3565C38.2636 31.3565 37.8469 31.4867 37.506 31.7472C37.1699 32.0076 36.9118 32.3769 36.7319 32.8551C36.552 33.3333 36.462 33.8968 36.462 34.5455ZM49.0472 36.0085L52.9748 29.0909H55.9577V40H53.0742V33.0611L49.1609 40H46.1566V29.0909H49.0472V36.0085ZM58.3832 40V29.0909H63.0352C64.3799 29.0909 65.4428 29.3466 66.2241 29.858C67.0053 30.3693 67.396 31.0961 67.396 32.0384C67.396 32.6302 67.1758 33.1226 66.7354 33.5156C66.2951 33.9086 65.6843 34.1738 64.9031 34.3111C65.5565 34.3584 66.1128 34.5076 66.5721 34.7585C67.0361 35.0047 67.3888 35.3243 67.6303 35.7173C67.8765 36.1103 67.9996 36.5459 67.9996 37.0241C67.9996 37.6444 67.8339 38.1771 67.5025 38.6222C67.1758 39.0672 66.6952 39.4081 66.0607 39.6449C65.431 39.8816 64.6616 40 63.7525 40H58.3832ZM61.2028 37.7344H63.7525C64.1739 37.7344 64.503 37.6349 64.7397 37.4361C64.9812 37.2325 65.1019 36.9555 65.1019 36.6051C65.1019 36.2169 64.9812 35.9115 64.7397 35.6889C64.503 35.4664 64.1739 35.3551 63.7525 35.3551H61.2028V37.7344ZM61.2028 33.5795H63.0991C63.4021 33.5795 63.6602 33.5369 63.8732 33.4517C64.091 33.3617 64.2567 33.2339 64.3704 33.0682C64.4888 32.9025 64.5479 32.706 64.5479 32.4787C64.5479 32.1425 64.413 31.8797 64.1431 31.6903C63.8732 31.5009 63.5039 31.4062 63.0352 31.4062H61.2028V33.5795ZM76.2987 40V31.4631H74.2532C73.6992 31.4631 73.2778 31.5909 72.989 31.8466C72.7002 32.1023 72.5581 32.4053 72.5629 32.7557C72.5581 33.1108 72.6954 33.4115 72.9748 33.6577C73.2589 33.8991 73.6755 34.0199 74.2248 34.0199H77.3072V36.0653H74.2248C73.292 36.0653 72.4847 35.9233 71.8029 35.6392C71.1211 35.3551 70.5955 34.9598 70.2262 34.4531C69.8569 33.9418 69.6746 33.3475 69.6793 32.6705C69.6746 31.9602 69.8569 31.3376 70.2262 30.8026C70.5955 30.2628 71.1235 29.8437 71.81 29.5455C72.5013 29.2424 73.3157 29.0909 74.2532 29.0909H79.1183V40H76.2987ZM69.3668 40L72.3995 34.3182H75.2901L72.2646 40H69.3668ZM80.908 36.9105H83.8413C83.8555 37.2704 84.0165 37.5545 84.3242 37.7628C84.632 37.9711 85.0297 38.0753 85.5174 38.0753C86.0098 38.0753 86.4241 37.9616 86.7603 37.7344C87.0965 37.5024 87.2646 37.1709 87.2646 36.7401C87.2646 36.4749 87.1983 36.2453 87.0657 36.0511C86.9331 35.8523 86.7485 35.696 86.5117 35.5824C86.275 35.4687 86.0004 35.4119 85.6879 35.4119H84.1183V33.4304H85.6879C86.1566 33.4304 86.5165 33.3215 86.7674 33.1037C87.0231 32.8859 87.1509 32.6136 87.1509 32.2869C87.1509 31.9176 87.0183 31.6217 86.7532 31.3991C86.4928 31.1719 86.14 31.0582 85.695 31.0582C85.2451 31.0582 84.8711 31.16 84.5728 31.3636C84.2792 31.5625 84.1277 31.8229 84.1183 32.1449H81.1992C81.2087 31.4915 81.4052 30.9257 81.7887 30.4474C82.177 29.9692 82.6978 29.5999 83.3512 29.3395C84.0094 29.0791 84.7456 28.9489 85.56 28.9489C86.4502 28.9489 87.2172 29.0743 87.8612 29.3253C88.5098 29.5715 89.007 29.9242 89.3526 30.3835C89.703 30.8428 89.8782 31.3897 89.8782 32.0241C89.8782 32.6018 89.6888 33.0848 89.31 33.473C88.9312 33.8613 88.4009 34.1383 87.7191 34.304V34.4176C88.1689 34.446 88.5761 34.5668 88.9407 34.7798C89.3053 34.9929 89.5965 35.2865 89.8143 35.6605C90.0321 36.0298 90.141 36.4678 90.141 36.9744C90.141 37.6515 89.9421 38.2315 89.5444 38.7145C89.1514 39.1974 88.6069 39.5691 87.9109 39.8295C87.2196 40.0852 86.4265 40.2131 85.5316 40.2131C84.6604 40.2131 83.8791 40.0876 83.1879 39.8366C82.5013 39.581 81.9544 39.2069 81.5472 38.7145C81.1448 38.2221 80.9317 37.6207 80.908 36.9105ZM95.1072 40.206C94.4112 40.206 93.791 40.0852 93.2464 39.8438C92.7019 39.5975 92.2711 39.2353 91.9538 38.7571C91.6413 38.2741 91.4851 37.6728 91.4851 36.9531C91.4851 36.3471 91.5964 35.8381 91.8189 35.4261C92.0414 35.0142 92.3445 34.6828 92.728 34.4318C93.1115 34.1809 93.5471 33.9915 94.0348 33.8636C94.5272 33.7358 95.0433 33.6458 95.5831 33.5938C96.2176 33.5275 96.7289 33.4659 97.1172 33.4091C97.5054 33.3475 97.7872 33.2576 97.9624 33.1392C98.1375 33.0208 98.2251 32.8456 98.2251 32.6136V32.571C98.2251 32.1212 98.0831 31.7732 97.799 31.527C97.5196 31.2808 97.1219 31.1577 96.6058 31.1577C96.0613 31.1577 95.6281 31.2784 95.3061 31.5199C94.9841 31.7566 94.7711 32.0549 94.6669 32.4148L91.8686 32.1875C92.0107 31.5246 92.29 30.9517 92.7067 30.4688C93.1233 29.9811 93.6607 29.607 94.3189 29.3466C94.9818 29.0814 95.7488 28.9489 96.62 28.9489C97.2261 28.9489 97.8061 29.0199 98.3601 29.1619C98.9188 29.304 99.4136 29.5241 99.8445 29.8224C100.28 30.1207 100.623 30.5043 100.874 30.973C101.125 31.437 101.251 31.9934 101.251 32.642V40H98.3814V38.4872H98.2962C98.121 38.8281 97.8866 39.1288 97.593 39.3892C97.2995 39.6449 96.9467 39.8461 96.5348 39.9929C96.1229 40.1349 95.647 40.206 95.1072 40.206ZM95.9737 38.1179C96.4188 38.1179 96.8118 38.0303 97.1527 37.8551C97.4936 37.6752 97.7611 37.4337 97.9553 37.1307C98.1494 36.8277 98.2464 36.4844 98.2464 36.1009V34.9432C98.1518 35.0047 98.0215 35.0616 97.8558 35.1136C97.6948 35.161 97.5125 35.206 97.3089 35.2486C97.1054 35.2865 96.9018 35.322 96.6982 35.3551C96.4946 35.3835 96.3099 35.4096 96.1442 35.4332C95.7891 35.4853 95.4789 35.5682 95.2138 35.6818C94.9486 35.7955 94.7427 35.9493 94.5959 36.1435C94.4491 36.3329 94.3757 36.5696 94.3757 36.8537C94.3757 37.2656 94.5249 37.5805 94.8232 37.7983C95.1262 38.0114 95.5097 38.1179 95.9737 38.1179ZM102.502 31.4702V29.0909H112.389V31.4702H108.873V40H105.99V31.4702H102.502ZM116.119 32.4432H119.379C120.823 32.4432 121.95 32.7888 122.76 33.4801C123.57 34.1667 123.974 35.0852 123.974 36.2358C123.974 36.9839 123.792 37.642 123.428 38.2102C123.063 38.7737 122.537 39.214 121.851 39.5312C121.164 39.8438 120.34 40 119.379 40H114.223V29.0909H117.114V37.6207H119.379C119.886 37.6207 120.303 37.4929 120.629 37.2372C120.956 36.9815 121.122 36.6548 121.126 36.2571C121.122 35.8357 120.956 35.4924 120.629 35.2273C120.303 34.9574 119.886 34.8224 119.379 34.8224H116.119V32.4432ZM130.113 27.9901V25.4545H142.059V27.9901H137.605V40H134.566V27.9901H130.113ZM147.359 40.2131C146.237 40.2131 145.271 39.9858 144.461 39.5312C143.656 39.072 143.036 38.4233 142.6 37.5852C142.165 36.7424 141.947 35.7457 141.947 34.5952C141.947 33.473 142.165 32.4882 142.6 31.6406C143.036 30.7931 143.649 30.1326 144.44 29.6591C145.235 29.1856 146.168 28.9489 147.238 28.9489C147.958 28.9489 148.628 29.0649 149.248 29.2969C149.873 29.5241 150.417 29.8674 150.881 30.3267C151.35 30.786 151.715 31.3636 151.975 32.0597C152.236 32.7509 152.366 33.5606 152.366 34.4886V35.3196H143.154V33.4446H149.518C149.518 33.009 149.423 32.6231 149.234 32.2869C149.044 31.9508 148.781 31.688 148.445 31.4986C148.114 31.3045 147.728 31.2074 147.288 31.2074C146.828 31.2074 146.421 31.3139 146.066 31.527C145.716 31.7353 145.441 32.017 145.242 32.3722C145.043 32.7225 144.942 33.1132 144.937 33.544V35.3267C144.937 35.8665 145.036 36.3329 145.235 36.7259C145.439 37.1188 145.725 37.4219 146.094 37.6349C146.464 37.848 146.902 37.9545 147.408 37.9545C147.745 37.9545 148.052 37.9072 148.332 37.8125C148.611 37.7178 148.85 37.5758 149.049 37.3864C149.248 37.197 149.399 36.965 149.504 36.6903L152.302 36.875C152.16 37.5473 151.869 38.1345 151.428 38.6364C150.993 39.1335 150.429 39.5218 149.738 39.8011C149.051 40.0758 148.258 40.2131 147.359 40.2131ZM153.701 40L153.687 37.5994H154.049C154.305 37.5994 154.525 37.5379 154.71 37.4148C154.899 37.2869 155.055 37.081 155.178 36.7969C155.301 36.5128 155.398 36.1364 155.469 35.6676C155.54 35.1941 155.588 34.6117 155.612 33.9205L155.789 29.0909H164.085V40H161.201V31.4702H158.509L158.339 34.8011C158.296 35.715 158.185 36.5009 158.005 37.1591C157.83 37.8172 157.586 38.357 157.273 38.7784C156.961 39.1951 156.585 39.5028 156.144 39.7017C155.704 39.9006 155.192 40 154.61 40H153.701ZM171.402 40.2131C170.279 40.2131 169.314 39.9858 168.504 39.5312C167.699 39.072 167.079 38.4233 166.643 37.5852C166.208 36.7424 165.99 35.7457 165.99 34.5952C165.99 33.473 166.208 32.4882 166.643 31.6406C167.079 30.7931 167.692 30.1326 168.483 29.6591C169.278 29.1856 170.211 28.9489 171.281 28.9489C172.001 28.9489 172.671 29.0649 173.291 29.2969C173.916 29.5241 174.46 29.8674 174.924 30.3267C175.393 30.786 175.758 31.3636 176.018 32.0597C176.279 32.7509 176.409 33.5606 176.409 34.4886V35.3196H167.197V33.4446H173.561C173.561 33.009 173.466 32.6231 173.277 32.2869C173.087 31.9508 172.824 31.688 172.488 31.4986C172.157 31.3045 171.771 31.2074 171.331 31.2074C170.871 31.2074 170.464 31.3139 170.109 31.527C169.759 31.7353 169.484 32.017 169.285 32.3722C169.086 32.7225 168.984 33.1132 168.98 33.544V35.3267C168.98 35.8665 169.079 36.3329 169.278 36.7259C169.482 37.1188 169.768 37.4219 170.137 37.6349C170.507 37.848 170.945 37.9545 171.451 37.9545C171.788 37.9545 172.095 37.9072 172.375 37.8125C172.654 37.7178 172.893 37.5758 173.092 37.3864C173.291 37.197 173.442 36.965 173.547 36.6903L176.345 36.875C176.203 37.5473 175.912 38.1345 175.471 38.6364C175.036 39.1335 174.472 39.5218 173.781 39.8011C173.094 40.0758 172.301 40.2131 171.402 40.2131ZM185.855 29.0909V31.4702H181.324V40H178.383V29.0909H185.855ZM187.7 44.0909V29.0909H190.683V30.9233H190.817C190.95 30.6297 191.142 30.3314 191.393 30.0284C191.648 29.7206 191.98 29.465 192.387 29.2614C192.799 29.053 193.31 28.9489 193.921 28.9489C194.717 28.9489 195.451 29.1572 196.123 29.5739C196.795 29.9858 197.333 30.6084 197.735 31.4418C198.138 32.2704 198.339 33.3097 198.339 34.5597C198.339 35.7765 198.142 36.804 197.749 37.642C197.361 38.4754 196.831 39.1075 196.158 39.5384C195.491 39.9645 194.743 40.1776 193.914 40.1776C193.327 40.1776 192.827 40.0805 192.415 39.8864C192.008 39.6922 191.674 39.4484 191.414 39.1548C191.154 38.8565 190.955 38.5559 190.817 38.2528H190.725V44.0909H187.7ZM190.661 34.5455C190.661 35.1941 190.751 35.7599 190.931 36.2429C191.111 36.7259 191.371 37.1023 191.712 37.3722C192.053 37.6373 192.468 37.7699 192.955 37.7699C193.448 37.7699 193.864 37.6349 194.205 37.3651C194.546 37.0904 194.804 36.7116 194.979 36.2287C195.159 35.741 195.249 35.1799 195.249 34.5455C195.249 33.9157 195.162 33.3617 194.987 32.8835C194.811 32.4053 194.553 32.0312 194.212 31.7614C193.871 31.4915 193.452 31.3565 192.955 31.3565C192.463 31.3565 192.046 31.4867 191.705 31.7472C191.369 32.0076 191.111 32.3769 190.931 32.8551C190.751 33.3333 190.661 33.8968 190.661 34.5455ZM203.467 40.206C202.771 40.206 202.15 40.0852 201.606 39.8438C201.061 39.5975 200.63 39.2353 200.313 38.7571C200.001 38.2741 199.844 37.6728 199.844 36.9531C199.844 36.3471 199.956 35.8381 200.178 35.4261C200.401 35.0142 200.704 34.6828 201.087 34.4318C201.471 34.1809 201.906 33.9915 202.394 33.8636C202.887 33.7358 203.403 33.6458 203.942 33.5938C204.577 33.5275 205.088 33.4659 205.477 33.4091C205.865 33.3475 206.147 33.2576 206.322 33.1392C206.497 33.0208 206.585 32.8456 206.585 32.6136V32.571C206.585 32.1212 206.442 31.7732 206.158 31.527C205.879 31.2808 205.481 31.1577 204.965 31.1577C204.421 31.1577 203.987 31.2784 203.665 31.5199C203.344 31.7566 203.13 32.0549 203.026 32.4148L200.228 32.1875C200.37 31.5246 200.649 30.9517 201.066 30.4688C201.483 29.9811 202.02 29.607 202.678 29.3466C203.341 29.0814 204.108 28.9489 204.979 28.9489C205.585 28.9489 206.165 29.0199 206.719 29.1619C207.278 29.304 207.773 29.5241 208.204 29.8224C208.639 30.1207 208.983 30.5043 209.234 30.973C209.485 31.437 209.61 31.9934 209.61 32.642V40H206.741V38.4872H206.656C206.48 38.8281 206.246 39.1288 205.952 39.3892C205.659 39.6449 205.306 39.8461 204.894 39.9929C204.482 40.1349 204.006 40.206 203.467 40.206ZM204.333 38.1179C204.778 38.1179 205.171 38.0303 205.512 37.8551C205.853 37.6752 206.121 37.4337 206.315 37.1307C206.509 36.8277 206.606 36.4844 206.606 36.1009V34.9432C206.511 35.0047 206.381 35.0616 206.215 35.1136C206.054 35.161 205.872 35.206 205.668 35.2486C205.465 35.2865 205.261 35.322 205.058 35.3551C204.854 35.3835 204.669 35.4096 204.504 35.4332C204.148 35.4853 203.838 35.5682 203.573 35.6818C203.308 35.7955 203.102 35.9493 202.955 36.1435C202.808 36.3329 202.735 36.5696 202.735 36.8537C202.735 37.2656 202.884 37.5805 203.183 37.7983C203.486 38.0114 203.869 38.1179 204.333 38.1179ZM218.406 36.6548L221.361 29.0909H223.662L219.408 40H217.398L213.243 29.0909H215.537L218.406 36.6548ZM214.848 29.0909V40H211.957V29.0909H214.848ZM222.114 40V29.0909H224.969V40H222.114Z" fill="#8C9098"/>
    <g clip-path="url(#clip0_36_373)">
        <path d="M256 14C250.962 14 246.126 16.003 242.566 19.5649C239.003 23.1282 237.001 27.9608 237 33C237 38.0371 239.004 42.8732 242.566 46.4351C246.126 49.997 250.962 52 256 52C261.038 52 265.874 49.997 269.434 46.4351C272.996 42.8732 275 38.0371 275 33C275 27.9629 272.996 23.1268 269.434 19.5649C265.874 16.003 261.038 14 256 14Z" fill="url(#paint0_linear_36_373)"/>
        <path d="M245.6 32.7993C251.14 30.3863 254.833 28.7954 256.68 28.0268C261.958 25.832 263.054 25.4508 263.769 25.4379C263.927 25.4353 264.277 25.4742 264.505 25.659C264.695 25.8149 264.749 26.0257 264.776 26.1737C264.799 26.3215 264.832 26.6585 264.805 26.9215C264.52 29.9259 263.282 37.2165 262.653 40.5816C262.389 42.0054 261.863 42.4828 261.356 42.5294C260.251 42.6309 259.414 41.8003 258.345 41.0999C256.674 40.0036 255.73 39.3214 254.106 38.2517C252.23 37.0155 253.447 36.336 254.516 35.2257C254.795 34.935 259.657 30.5131 259.75 30.112C259.761 30.0618 259.773 29.8748 259.66 29.7762C259.551 29.6774 259.387 29.7112 259.269 29.7379C259.099 29.7759 256.43 31.5418 251.253 35.0351C250.496 35.5558 249.81 35.8096 249.193 35.7963C248.516 35.7817 247.21 35.4127 246.239 35.0974C245.051 34.7106 244.104 34.5061 244.187 33.8491C244.229 33.5071 244.701 33.1571 245.6 32.7993Z" fill="white"/>
    </g>
    <defs>
        <linearGradient id="paint0_linear_36_373" x1="2137" y1="14" x2="2137" y2="3814" gradientUnits="userSpaceOnUse">
            <stop stop-color="#2AABEE"/>
            <stop offset="1" stop-color="#229ED9"/>
        </linearGradient>
        <clipPath id="clip0_36_373">
            <rect width="38" height="38" fill="white" transform="translate(237 14)"/>
        </clipPath>
    </defs>
</svg>
